# xmcd
#
# Track frame offsets: 
#        150
#        21060
#        37968
#        53870
#        75643
#        93485
#        111550
#        135980
#        152890
#        174390
#        194985
#        218070
#
# Disc length: 3110 seconds
#
# Revision: 0
# Processed by: cddbd v1.5.2PL0 Copyright (c) Steve Scherf et al.
# Submitted via: ExactAudioCopy v0.99pb3
#
DISCID=a20c240c
DTITLE=Little Freddie King - Chasing Tha Blues
DYEAR=2012
DGENRE=Blues
TTITLE0=Born Dead
TTITLE1=Crackho Flo
TTITLE2=Louisiana Train Wreck
TTITLE3=Got Tha Blues On My Back
TTITLE4=Pocket Full Of Money
TTITLE5=Back In New Orleans
TTITLE6=King Freddie's Shuffle
TTITLE7=Great Great Bamboozle
TTITLE8=Night Time In Treme
TTITLE9=Bywater Crawl
TTITLE10=Standin' At Yo Door
TTITLE11=Mixed Bucket Of Blood
EXTD=
EXTT0=
EXTT1=
EXTT2=
EXTT3=
EXTT4=
EXTT5=
EXTT6=
EXTT7=
EXTT8=
EXTT9=
EXTT10=
EXTT11=
PLAYORDER=
